<svg width="35" height="35" viewBox="0 0 35 35" fill="none" xmlns="http://www.w3.org/2000/svg">
<g id="Layer_1" clip-path="url(#clip0_4815_4716)">
<path id="Vector" d="M17.5 35C27.165 35 35 27.165 35 17.5C35 7.83502 27.165 0 17.5 0C7.83502 0 0 7.83502 0 17.5C0 27.165 7.83502 35 17.5 35Z" fill="#444444"/>
<g id="Group">
<path id="Vector_2" d="M14.875 14.672V20.139H12.978V14.728C12.978 13.993 12.068 13.79 12.068 13.79V11.879C15.092 12.005 14.875 14.672 14.875 14.672Z" fill="#DDDDDD"/>
<path id="Vector_3" d="M8.96 14.427C8.96 14.427 7.644 14.413 7.189 15.19V12.138C7.189 12.138 5.376 12.159 5.25 12.138V20.125H7.189V19.663C7.189 19.663 7.77 20.342 8.799 20.342C8.799 20.342 11.459 20.265 11.473 17.696C11.473 17.696 11.83 14.693 8.967 14.427H8.96ZM8.365 18.571C7.749 18.571 7.252 18.074 7.252 17.458C7.252 16.842 7.749 16.345 8.365 16.345C8.981 16.345 9.478 16.842 9.478 17.458C9.478 18.074 8.981 18.571 8.365 18.571Z" fill="#DDDDDD"/>
<path id="Vector_4" d="M19.369 14.497C17.612 14.497 16.191 15.806 16.191 17.423C16.191 19.04 17.612 20.349 19.369 20.349C21.126 20.349 22.547 19.04 22.547 17.423C22.547 15.806 21.126 14.497 19.369 14.497ZM19.369 18.62C18.704 18.62 18.172 18.081 18.172 17.423C18.172 16.765 18.711 16.226 19.369 16.226C20.027 16.226 20.566 16.765 20.566 17.423C20.566 18.081 20.027 18.62 19.369 18.62Z" fill="#DDDDDD"/>
<path id="Vector_5" d="M27.825 14.574V15.162C27.195 14.315 26.173 14.427 26.173 14.427C25.963 14.427 25.648 14.462 25.291 14.595C24.808 14.77 24.5 15.036 24.423 15.106C23.688 15.764 23.569 16.681 23.527 17.01C23.478 17.381 23.506 17.689 23.527 17.885C23.527 20.188 25.886 20.356 25.886 20.356C27.552 20.356 27.783 19.614 27.783 19.614C27.797 21.441 26.607 21.329 26.607 21.329H26.089V23.128H26.95C29.771 23.128 29.743 20.349 29.743 20.349V14.581H27.818L27.825 14.574ZM26.733 18.592C26.082 18.592 25.557 18.067 25.557 17.416C25.557 16.765 26.082 16.24 26.733 16.24C27.384 16.24 27.909 16.765 27.909 17.416C27.909 18.067 27.384 18.592 26.733 18.592Z" fill="#DDDDDD"/>
</g>
</g>
<defs>
<clipPath id="clip0_4815_4716">
<rect width="35" height="35" fill="white"/>
</clipPath>
</defs>
</svg>
