<svg xmlns="http://www.w3.org/2000/svg" width="41" height="41" viewBox="0 0 41 41">
  <g id="애플" transform="translate(0.5 0.5)">
    <path id="제외_1" data-name="제외 1" d="M253.616,668a19.937,19.937,0,1,1,7.785-1.572A19.878,19.878,0,0,1,253.616,668Zm-3.11-26.787h-.049a4.447,4.447,0,0,0-3.774,2.308,7.3,7.3,0,0,0-.623,4.825,11.6,11.6,0,0,0,1.769,4.435c.76,1.13,1.669,2.335,2.834,2.335h.061a3.47,3.47,0,0,0,1.307-.352,3.885,3.885,0,0,1,1.68-.4,3.66,3.66,0,0,1,1.6.385,3.14,3.14,0,0,0,1.352.341h.055c1.3-.024,2.1-1.215,2.808-2.265a10.082,10.082,0,0,0,1.25-2.583l.006-.02-.029-.014a4.1,4.1,0,0,1-2.418-3.722A4.162,4.162,0,0,1,260.28,643l.036-.024a4.219,4.219,0,0,0-3.347-1.833c-.067,0-.136-.006-.2-.006a6.03,6.03,0,0,0-2.215.548,2.054,2.054,0,0,1-2.2,0A5.056,5.056,0,0,0,250.506,641.213Zm6.475-4.518a4.056,4.056,0,0,0-2.7,1.409,3.912,3.912,0,0,0-.967,2.839c.064.006.133.009.2.009a3.48,3.48,0,0,0,2.52-1.3,4.151,4.151,0,0,0,.945-2.952Z" transform="translate(-233.616 -628)" fill="#010000" stroke="rgba(0,0,0,0)" stroke-width="1"/>
  </g>
</svg>
