<svg xmlns="http://www.w3.org/2000/svg" width="40" height="40" viewBox="0 0 40 40">
  <g id="카카오" transform="translate(-24 -112)">
    <path id="패스_1" data-name="패스 1" d="M44,112a20,20,0,1,1-20,20A20,20,0,0,1,44,112Z" fill="#fee403" fill-rule="evenodd"/>
    <path id="패스_2" data-name="패스 2" d="M44.217,123.78c-4.979,0-9.015,3.134-9.015,7a6.733,6.733,0,0,0,3.938,5.782l-1,3.672a.368.368,0,0,0,.564.4l4.385-2.908c.37.036.746.057,1.128.057,4.979,0,9.015-3.134,9.015-7s-4.036-7-9.015-7" fill="#1a1601" fill-rule="evenodd"/>
  </g>
</svg>
