<svg xmlns="http://www.w3.org/2000/svg" width="40" height="40" viewBox="0 0 40 40">
  <g id="구글" transform="translate(-164.02 -112)">
    <path id="패스_5" data-name="패스 5" d="M184.02,112a20,20,0,1,1-20,20A20,20,0,0,1,184.02,112Z" fill="#f3f2f3" fill-rule="evenodd"/>
    <g id="그룹_3" data-name="그룹 3">
      <path id="패스_6" data-name="패스 6" d="M193.05,130.293h-8.842v3.632h5.052a4.318,4.318,0,0,1-1.873,2.833l3.034,2.356a9.158,9.158,0,0,0,2.8-6.9A10.791,10.791,0,0,0,193.05,130.293Z" fill="#3e82f1"/>
      <path id="패스_7" data-name="패스 7" d="M187.387,136.758a5.664,5.664,0,0,1-8.432-2.974l-3.137,2.432a9.386,9.386,0,0,0,8.39,5.172,8.965,8.965,0,0,0,6.213-2.274Z" fill="#32a753"/>
      <path id="패스_8" data-name="패스 8" d="M178.955,130.216l-3.137-2.432a9.4,9.4,0,0,0,0,8.432l3.137-2.432a5.542,5.542,0,0,1,0-3.568Z" fill="#f9bb00"/>
      <path id="패스_9" data-name="패스 9" d="M184.208,122.612a9.386,9.386,0,0,0-8.39,5.172l3.137,2.432a5.594,5.594,0,0,1,5.253-3.87,5.074,5.074,0,0,1,3.589,1.4l2.692-2.693A9.022,9.022,0,0,0,184.208,122.612Z" fill="#e74133"/>
    </g>
  </g>
</svg>
